<?xml version="1.0" encoding="UTF-8" standalone="no"?>
<!-- Created with Inkscape (http://www.inkscape.org/) -->

<svg
   width="1000"
   height="500"
   viewBox="0 0 1000 500"
   version="1.1"
   id="svg1"
   sodipodi:docname="Phoenix_Theatrical-Wordmark-Digital-Full_Color.svg"
   inkscape:version="1.4 (e7c3feb1, 2024-10-09)"
   xmlns:inkscape="http://www.inkscape.org/namespaces/inkscape"
   xmlns:sodipodi="http://sodipodi.sourceforge.net/DTD/sodipodi-0.dtd"
   xmlns="http://www.w3.org/2000/svg"
   xmlns:svg="http://www.w3.org/2000/svg">
  <sodipodi:namedview
     id="namedview1"
     pagecolor="#ffffff"
     bordercolor="#666666"
     borderopacity="1.0"
     inkscape:showpageshadow="2"
     inkscape:pageopacity="0.0"
     inkscape:pagecheckerboard="0"
     inkscape:deskcolor="#5f5f5f"
     inkscape:document-units="px"
     showgrid="false"
     inkscape:zoom="0.81137578"
     inkscape:cx="443.0746"
     inkscape:cy="255.12223"
     inkscape:current-layer="layer1">
    <sodipodi:guide
       position="0,500"
       orientation="250,0"
       id="guide2"
       inkscape:locked="false" />
    <sodipodi:guide
       position="0,250"
       orientation="0,500"
       id="guide3"
       inkscape:locked="false" />
    <sodipodi:guide
       position="500,250"
       orientation="-250,0"
       id="guide4"
       inkscape:locked="false" />
    <sodipodi:guide
       position="500,500"
       orientation="0,-500"
       id="guide5"
       inkscape:locked="false" />
  </sodipodi:namedview>
  <defs
     id="defs1" />
  <g
     inkscape:label="Layer 1"
     inkscape:groupmode="layer"
     id="layer1">
    <g
       id="text1"
       style="font-size:200px;line-height:1.05;font-family:Oxanium;-inkscape-font-specification:Oxanium;text-align:center;word-spacing:0px;text-anchor:middle;fill:#0081a0;stroke:#ffffff;fill-opacity:1"
       aria-label="PHOENIX&#10;Theatrical">
      <path
         style="font-weight:600;-inkscape-font-specification:'Oxanium Semi-Bold';fill:#0081a0;stroke:#ffffff;fill-opacity:1"
         d="M 138.93272,213.10001 V 75.100006 h 66.4 q 32.6,0 32.6,32.600004 v 26.6 q 0,32.4 -32.6,32.4 h -42 v 46.4 z m 24.4,-68.6 h 41.4 q 8.8,0 8.8,-8.8 v -29.8 q 0,-8.600004 -8.8,-8.600004 h -41.4 z"
         id="path9" />
      <path
         style="font-weight:600;font-size:166.667px;-inkscape-font-specification:'Oxanium Semi-Bold';fill:#0081a0;stroke:#ffffff;fill-opacity:1"
         d="M 263.09946,213.10001 V 98.099771 h 20.33338 v 46.166759 h 48.5001 V 98.099771 h 20.33337 V 213.10001 h -20.33337 v -50.33344 h -48.5001 v 50.33344 z m 115.83356,-27.16673 v -60.66679 q 0,-27.166719 27.16672,-27.166719 h 38.16675 q 27.16672,0 27.16672,27.166719 v 60.66679 q 0,27.16673 -27.16672,27.16673 h -38.16675 q -27.16672,0 -27.16672,-27.16673 z m 20.33338,1.50001 q 0,7.16668 7.33334,7.16668 h 37.16675 q 7.33335,0 7.33335,-7.16668 v -63.6668 q 0,-7.16668 -7.33335,-7.16668 h -37.16675 q -7.33334,0 -7.33334,7.16668 z m 98.83351,25.66672 V 98.099771 h 77.33349 v 18.500039 h -57.00012 v 27.66672 h 52.00011 v 18.50004 h -52.00011 v 31.8334 h 57.00012 v 18.50004 z m 99.8337,0 V 98.099771 h 22.16672 l 51.0001,82.000169 V 98.099771 h 20.33338 V 213.10001 h -22.00005 l -51.16677,-82.00017 v 82.00017 z m 121.83371,0 V 98.099771 H 740.1007 V 213.10001 Z"
         id="path10" />
      <path
         style="font-weight:600;-inkscape-font-specification:'Oxanium Semi-Bold';fill:#0081a0;stroke:#ffffff;fill-opacity:1"
         d="m 760.06738,208.10001 44,-66 -41.4,-62.000004 2.4,-5 h 21.4 l 31,47.600004 31.2,-47.600004 h 21.4 l 2.4,5 -41.4,62.000004 44,66 -2.4,5 h -21.4 l -33.8,-51.6 -33.6,51.6 h -21.4 z"
         id="path11" />
      <path
         style="font-weight:600;-inkscape-font-specification:'Oxanium Semi-Bold';fill:#000000;stroke:#ffffff;fill-opacity:1"
         d="M 95.665878,307.3 V 285.1 H 207.06588 v 22.2 h -43.4 v 115.8 h -24.6 V 307.3 Z"
         id="path12" />
      <path
         style="font-weight:600;font-size:166.667px;-inkscape-font-specification:'Oxanium Semi-Bold';fill:#000000;stroke:#ffffff;fill-opacity:1"
         d="M 224.36581,423.1 V 299.76641 h 19.50004 v 35.83341 h 28.50006 q 26.16672,0 26.16672,26.33338 V 423.1 h -19.50004 v -62.83347 q 0,-7.66668 -7.66668,-7.66668 H 243.86585 V 423.1 Z m 97.1668,-26.33339 V 361.9332 q 0,-26.33338 26.33339,-26.33338 h 21.66671 q 26.16672,0 26.16672,26.33338 v 24.66672 h -54.66678 v 11.83336 q 0,7.66668 7.66669,7.66668 h 43.66675 v 10.50002 L 383.53274,423.1 H 347.866 q -26.33339,0 -26.33339,-26.33339 z m 19.50004,-25.33339 h 35.16674 v -11.16669 q 0,-7.66668 -7.66668,-7.66668 h -19.83337 q -7.66669,0 -7.66669,7.66668 z M 441.03292,423.1 q -26.33339,0 -26.33339,-26.00006 0,-26.00005 26.33339,-26.00005 h 25.66672 v -10.83336 q 0,-7.66668 -7.66668,-7.66668 h -35.33341 v -10.50002 l 8.66669,-6.50001 h 27.66672 q 26.16672,0 26.16672,26.33338 V 423.1 Z m -6.83335,-24.66672 q 0,7.66668 7.66668,7.66668 h 24.83339 v -19.83337 h -24.83339 q -7.66668,0 -7.66668,7.50001 z m 75.66699,-1.66667 v -88.66685 h 19.50004 v 27.50006 H 559.2 v 17.00003 h -29.8334 v 45.83343 q 0,7.66668 7.66669,7.66668 h 23.83338 v 10.50002 L 552.03332,423.1 h -15.83337 q -26.33339,0 -26.33339,-26.33339 z M 578.70003,423.1 v -76.66683 q 6.00001,-10.83335 23.00005,-10.83335 h 17.50003 l 8.83335,6.50001 v 10.50002 h -21.83337 q -5.66668,0 -8.00002,2.83334 V 423.1 Z m 65.66673,-102.66688 v -19.83337 h 20.50004 v 19.83337 z m 0.5,102.66688 V 335.59982 H 664.3668 V 423.1 Z m 43.16685,-26.33339 V 361.9332 q 0,-26.33338 26.33338,-26.33338 h 31.50007 l 8.83335,6.50001 v 10.50002 h -39.50008 q -7.66669,0 -7.66669,7.66668 v 38.16675 q 0,7.66668 7.66669,7.66668 h 39.50008 v 10.50002 L 745.86706,423.1 h -31.50007 q -26.33338,0 -26.33338,-26.33339 z M 796.5339,423.1 q -26.33339,0 -26.33339,-26.00006 0,-26.00005 26.33339,-26.00005 h 25.66672 v -10.83336 q 0,-7.66668 -7.66669,-7.66668 h -35.3334 v -10.50002 l 8.66668,-6.50001 h 27.66673 q 26.16672,0 26.16672,26.33338 V 423.1 Z m -6.83335,-24.66672 q 0,7.66668 7.66668,7.66668 h 24.83339 v -19.83337 h -24.83339 q -7.66668,0 -7.66668,7.50001 z"
         id="path13" />
      <path
         style="font-weight:600;-inkscape-font-specification:'Oxanium Semi-Bold';fill:#000000;stroke:#ffffff;fill-opacity:1"
         d="M 867.73415,388.3 V 275.1 h 23.4 v 115.6 q 0,13 13.2,14 v 20.2 q -36.6,0 -36.6,-36.6 z"
         id="path14" />
    </g>
    <text
       xml:space="preserve"
       style="font-size:80px;line-height:1.25;font-family:serif;-inkscape-font-specification:serif;text-align:center;word-spacing:0px;text-anchor:middle;fill:#000000;stroke:#ffffff"
       x="375.48941"
       y="295.19608"
       id="text3"
       inkscape:label="text3"><tspan
         sodipodi:role="line"
         id="tspan3"
         x="375.48941"
         y="295.19608" /></text>
  </g>
</svg>
