<?xml version="1.0" encoding="UTF-8" standalone="no"?>
<!-- Created with Inkscape (http://www.inkscape.org/) -->

<svg
   width="1000"
   height="1000"
   viewBox="0 0 264.58333 264.58333"
   version="1.1"
   id="svg1"
   xml:space="preserve"
   sodipodi:docname="Phoenix Theatrical Logo Final.svg"
   inkscape:version="1.4 (e7c3feb1, 2024-10-09)"
   inkscape:export-filename="Phoenix Theatrical Logo Final.png"
   inkscape:export-xdpi="300"
   inkscape:export-ydpi="300"
   xmlns:inkscape="http://www.inkscape.org/namespaces/inkscape"
   xmlns:sodipodi="http://sodipodi.sourceforge.net/DTD/sodipodi-0.dtd"
   xmlns="http://www.w3.org/2000/svg"
   xmlns:svg="http://www.w3.org/2000/svg"><sodipodi:namedview
     id="namedview1"
     pagecolor="#ebffe8"
     bordercolor="#666666"
     borderopacity="1.0"
     inkscape:showpageshadow="2"
     inkscape:pageopacity="0.0"
     inkscape:pagecheckerboard="0"
     inkscape:deskcolor="#d1d1d1"
     inkscape:document-units="px"
     inkscape:lockguides="true"
     showgrid="false"
     inkscape:zoom="0.60300045"
     inkscape:cx="446.93167"
     inkscape:cy="548.92165"
     inkscape:current-layer="layer17"
     showguides="false"><inkscape:grid
       id="grid4"
       units="px"
       originx="0"
       originy="0"
       spacingx="2.6458333"
       spacingy="2.6458333"
       empcolor="#0099e5"
       empopacity="0.30196078"
       color="#0099e5"
       opacity="0.14901961"
       empspacing="10"
       enabled="true"
       visible="false" /><sodipodi:guide
       position="0.2645835,264.31875"
       orientation="500.00004,0"
       inkscape:locked="true"
       id="guide148" /><sodipodi:guide
       position="0.2645835,132.02707"
       orientation="0,500.00004"
       inkscape:locked="true"
       id="guide149" /><sodipodi:guide
       position="132.55626,132.02707"
       orientation="-500.00004,0"
       inkscape:locked="true"
       id="guide150" /><sodipodi:guide
       position="132.55626,264.31875"
       orientation="0,-500.00004"
       inkscape:locked="true"
       id="guide151" /></sodipodi:namedview><defs
     id="defs1"><linearGradient
       id="swatch3"
       inkscape:swatch="solid"
       inkscape:label="White"><stop
         style="stop-color:#ffffff;stop-opacity:1;"
         offset="0"
         id="stop3" /></linearGradient><linearGradient
       id="swatch2"
       inkscape:swatch="solid"
       inkscape:label="Black"><stop
         style="stop-color:#000000;stop-opacity:1;"
         offset="0"
         id="stop2" /></linearGradient><linearGradient
       id="swatch1"
       inkscape:swatch="solid"
       inkscape:label="PhoenixTheatrical"><stop
         style="stop-color:#0081a0;stop-opacity:1;"
         offset="0"
         id="stop1" /></linearGradient><inkscape:path-effect
       effect="mirror_symmetry"
       start_point="132.29166,0"
       end_point="132.29166,264.58333"
       center_point="132.29166,132.29166"
       id="path-effect185"
       is_visible="true"
       lpeversion="1.2"
       lpesatellites=""
       mode="vertical"
       discard_orig_path="false"
       fuse_paths="false"
       oposite_fuse="false"
       split_items="false"
       split_open="false"
       link_styles="false" /><inkscape:path-effect
       effect="mirror_symmetry"
       start_point="132.29166,0"
       end_point="132.29166,264.58333"
       center_point="132.29166,132.29166"
       id="path-effect114"
       is_visible="true"
       lpeversion="1.2"
       lpesatellites=""
       mode="vertical"
       discard_orig_path="true"
       fuse_paths="false"
       oposite_fuse="false"
       split_items="false"
       split_open="false"
       link_styles="false" /><inkscape:path-effect
       effect="mirror_symmetry"
       start_point="132.29166,0"
       end_point="132.29166,264.58333"
       center_point="132.29166,132.29166"
       id="path-effect113"
       is_visible="true"
       lpeversion="1.2"
       lpesatellites=""
       mode="vertical"
       discard_orig_path="true"
       fuse_paths="false"
       oposite_fuse="false"
       split_items="false"
       split_open="false"
       link_styles="false" /><inkscape:path-effect
       effect="mirror_symmetry"
       start_point="132.29166,0"
       end_point="132.29166,264.58333"
       center_point="132.29166,132.29166"
       id="path-effect102"
       is_visible="true"
       lpeversion="1.2"
       lpesatellites=""
       mode="vertical"
       discard_orig_path="false"
       fuse_paths="false"
       oposite_fuse="false"
       split_items="true"
       split_open="false"
       link_styles="true" /><inkscape:path-effect
       effect="mirror_symmetry"
       start_point="132.29166,0"
       end_point="132.29166,264.58333"
       center_point="132.29166,132.29166"
       id="path-effect182"
       is_visible="true"
       lpeversion="1.2"
       lpesatellites=""
       mode="vertical"
       discard_orig_path="false"
       fuse_paths="false"
       oposite_fuse="false"
       split_items="false"
       split_open="false"
       link_styles="false" /></defs><g
     inkscape:groupmode="layer"
     id="layer18"
     inkscape:label="Layer 1"
     style="display:none;stroke:none" /><g
     inkscape:groupmode="layer"
     id="layer7"
     inkscape:label="Main Body Beziers"
     style="display:inline;fill:url(#swatch3);fill-opacity:1;stroke:none"><path
       id="path9"
       style="fill:url(#swatch3);fill-opacity:1;stroke:none;stroke-width:0.264583px;stroke-linecap:butt;stroke-linejoin:miter;stroke-opacity:1"
       inkscape:label="Head &amp; Body"
       d="M 100.7494 31.095259 C 100.46019 39.525881 103.33575 57.239572 123.902 63.569762 C 112.39011 64.087652 100.41036 61.237502 89.056062 51.01394 C 94.18341 62.306637 101.84035 71.586009 121.42825 71.369286 C 107.27205 80.865362 106.96191 87.225548 105.11451 95.949181 C 108.66632 91.524108 112.54196 87.671898 116.96289 84.784488 L 117.03627 84.736429 C 110.62011 94.188683 108.15117 104.97268 112.9993 119.56428 C 116.70895 130.72934 122.68815 135.39478 133.96288 142.66002 C 151.89532 154.21537 171.78878 202.24501 146.0562 237.29662 C 191.61086 199.9883 168.75563 154.04767 135.20673 136.4294 C 133.83623 135.70968 132.73171 134.53586 131.71082 133.37222 C 118.77729 118.63018 119.5355 108.10548 119.14931 104.9693 C 117.16182 88.829173 133.74744 72.785833 158.90503 82.055456 C 160.6274 82.690086 162.60609 86.132726 162.60609 86.132726 C 162.83834 82.27766 162.44255 78.445031 161.20463 74.642471 C 159.13654 73.57966 157.00427 72.634677 154.70477 71.996121 C 154.70477 71.996121 149.47733 59.005131 136.92497 59.004666 C 108.1519 54.141123 100.7494 31.095259 100.7494 31.095259 z M 135.1132 64.741784 C 138.4351 64.748642 140.65487 65.853408 142.50706 67.441877 C 144.50125 68.135753 145.95798 70.217365 146.35282 72.621406 C 142.44974 74.277004 135.48025 74.9398 132.37486 69.478962 C 131.63423 68.176562 131.7807 66.47018 132.04724 65.007401 C 133.1663 64.823702 134.18307 64.739863 135.1132 64.741784 z " /><path
       style="fill:url(#swatch3);fill-opacity:1;stroke:none;stroke-width:0.264583px;stroke-linecap:butt;stroke-linejoin:miter;stroke-opacity:1"
       d="m 176.37251,227.83195 c 12.06309,-34.83535 -3.25001,-59.1907 -12.08869,-70.78306 18.74716,7.92467 48.41333,39.78842 12.08869,70.78306 z"
       id="path12"
       sodipodi:nodetypes="ccc"
       inkscape:label="Right Breast" /><path
       style="fill:url(#swatch3);fill-opacity:1;stroke:none;stroke-width:0.264583px;stroke-linecap:butt;stroke-linejoin:miter;stroke-opacity:1"
       d="m 123.83409,145.30637 c 15.68647,19.18726 29.5785,51.86412 7.70264,92.48216 24.5389,-22.54698 32.49083,-64.93286 -7.70264,-92.48216 z"
       id="path14"
       sodipodi:nodetypes="ccc"
       inkscape:label="Left Breast" /></g><g
     inkscape:groupmode="layer"
     id="layer9"
     inkscape:label="Tail Beziers"
     style="display:inline;stroke:none;fill:url(#swatch3);fill-opacity:1"><path
       style="fill:url(#swatch3);stroke:none;stroke-width:0.264583px;stroke-linecap:butt;stroke-linejoin:miter;stroke-opacity:1;fill-opacity:1"
       d="m 173.04596,249.33671 c -39.44957,20.74185 -59.10672,-10.38907 -59.91937,-23.1032 -0.81265,-12.71413 4.57215,-22.8705 8.66069,-32.78246 11.49598,-27.87001 1.05349,-45.83469 -1.95861,-53.03463 1.81376,11.63523 2.13785,27.71924 -1.86815,36.42381 -8.80079,19.1231 -21.938963,64.88478 10.58822,83.75069 6.95521,4.03405 23.21477,6.51501 44.49722,-11.25421 z"
       id="path40"
       sodipodi:nodetypes="czscssc"
       inkscape:label="First Tail Feather" /><path
       style="fill:url(#swatch3);stroke:none;stroke-width:0.264583px;stroke-linecap:butt;stroke-linejoin:miter;stroke-opacity:1;fill-opacity:1"
       d="m 93.03255,244.95542 c -3.140775,-18.84164 0.683529,-42.67812 11.87661,-58.12504 l 4.93114,-6.80518 c 4.69981,-6.48594 10.77472,-21.82748 7.13714,-45.01016 -1.53466,16.4729 -8.10892,32.88489 -17.319284,43.28558 -22.130586,24.99069 -15.130083,51.94521 -6.625606,66.6548 z"
       id="path60"
       sodipodi:nodetypes="csscsc"
       inkscape:label="Second Tail Feather" /><path
       style="fill:url(#swatch3);stroke:none;stroke-width:0.264583px;stroke-linecap:butt;stroke-linejoin:miter;stroke-opacity:1;fill-opacity:1"
       d="m 97.907887,178.54038 c -43.014393,6.37874 -52.508633,68.74516 0,80.13881 -36.115821,-16.35331 -27.497497,-71.85038 0,-80.13881 z"
       id="path73"
       sodipodi:nodetypes="ccc"
       inkscape:label="Third Tail Feather" /><path
       style="fill:url(#swatch3);stroke:none;stroke-width:0.264583px;stroke-linecap:butt;stroke-linejoin:miter;stroke-opacity:1;fill-opacity:1"
       d="M 57.803332,206.07447 C 65.010241,186.8837 80.03601,171.31619 92.412533,162.55328 106.107,152.85723 111.8148,141.83545 116.30031,129.97716 c -6.28926,8.12982 -10.83407,13.42253 -21.301226,21.00172 -25.758638,18.65164 -32.942425,37.85813 -37.195752,55.09559 z"
       id="path92"
       sodipodi:nodetypes="cscsc"
       inkscape:label="Fourth Tail Feather" /></g><g
     inkscape:groupmode="layer"
     id="layer12"
     inkscape:label="Wing Beziers"
     inkscape:path-effect="#path-effect102"
     style="display:inline;fill:url(#swatch3);fill-opacity:1;stroke:none"><g
       id="g110"
       style="fill:url(#swatch3);fill-opacity:1;stroke:none"><path
         style="fill:url(#swatch3);stroke:none;stroke-width:0.264583px;stroke-linecap:butt;stroke-linejoin:miter;stroke-opacity:1;fill-opacity:1"
         d="m 101.07814,121.40034 c -0.29801,13.99469 -19.812953,37.77626 -38.791311,38.67899 17.010001,-10.49675 29.056542,-23.30982 38.791311,-38.67899 z m 62.42705,0 c 0.29801,13.99469 19.81295,37.77626 38.79131,38.67899 -17.01,-10.49675 -29.05654,-23.30982 -38.79131,-38.67899 z"
         id="path95"
         sodipodi:nodetypes="ccc"
         inkscape:label="First Wing"
         inkscape:original-d="M 101.07814,121.40034 C 100.78013,135.39503 81.265187,159.1766 62.286829,160.07933 79.29683,149.58258 91.343371,136.76951 101.07814,121.40034 Z" /><path
         style="fill:url(#swatch3);stroke:none;stroke-width:0.264583px;stroke-linecap:butt;stroke-linejoin:miter;stroke-opacity:1;fill-opacity:1"
         d="m 97.063265,125.29544 c -18.267581,19.72523 -42.538369,25.07811 -51.304988,24.45132 13.431419,-3.41604 33.83917,-12.18514 51.304988,-24.45132 z m 70.456795,0 c 18.26759,19.72523 42.53837,25.07811 51.30499,24.45132 -13.43142,-3.41604 -33.83917,-12.18514 -51.30499,-24.45132 z"
         id="path97"
         sodipodi:nodetypes="ccc"
         inkscape:label="Second WIng"
         inkscape:original-d="m 97.063265,125.29544 c -18.267581,19.72523 -42.538369,25.07811 -51.304988,24.45132 13.431419,-3.41604 33.83917,-12.18514 51.304988,-24.45132 z" /><path
         style="fill:url(#swatch3);stroke:none;stroke-width:0.264583px;stroke-linecap:butt;stroke-linejoin:miter;stroke-opacity:1;fill-opacity:1"
         d="m 31.621687,132.97798 c 18.193871,8.71337 43.411629,8.18444 63.397063,-10.79625 -9.793986,6.932 -33.070935,15.999 -63.397063,10.79625 z m 201.339953,0 c -18.19387,8.71337 -43.41163,8.18444 -63.39706,-10.79625 9.79399,6.932 33.07093,15.999 63.39706,10.79625 z"
         id="path98"
         sodipodi:nodetypes="ccc"
         inkscape:label="Third Wing"
         inkscape:original-d="m 31.621687,132.97798 c 18.193871,8.71337 43.411629,8.18444 63.397063,-10.79625 -9.793986,6.932 -33.070935,15.999 -63.397063,10.79625 z" /><path
         id="path99"
         style="fill:url(#swatch3);stroke:none;stroke-width:0.264583px;stroke-linecap:butt;stroke-linejoin:miter;stroke-opacity:1;fill-opacity:1"
         inkscape:label="Fourth Wing"
         d="M 18.847428,90.173306 C 30.492832,118.91218 62.169867,135.36069 95.075849,121.12232 71.12186,119.12769 39.219021,106.2245 18.847428,90.173306 Z m 5.692676,5.803263 C 35.548723,106.55545 48.637704,115.74754 64.383666,123.16819 47.215381,120.42097 34.127068,111.04344 24.540104,95.976569 Z M 245.7359,90.173306 c -11.6454,28.738874 -43.32244,45.187384 -76.22842,30.949014 23.95399,-1.99463 55.85683,-14.89782 76.22842,-30.949014 z m -5.69267,5.803263 c -11.00862,10.578881 -24.0976,19.770971 -39.84357,27.191621 17.16829,-2.74722 30.2566,-12.12475 39.84357,-27.191621 z"
         inkscape:original-d="M 18.847428 90.173306 C 30.492832 118.91218 62.169867 135.36069 95.075849 121.12232 C 71.12186 119.12769 39.219021 106.2245 18.847428 90.173306 z M 24.540104 95.976569 C 35.548723 106.55545 48.637704 115.74754 64.383666 123.16819 C 47.215381 120.42097 34.127068 111.04344 24.540104 95.976569 z " /><path
         style="fill:url(#swatch3);stroke:none;stroke-width:0.264583px;stroke-linecap:butt;stroke-linejoin:miter;stroke-opacity:1;fill-opacity:1"
         d="M 93.71319,119.09522 C 57.746125,117.8485 30.533468,92.734866 25.463362,61.34406 42.3697,90.533883 63.960104,107.82124 93.71319,119.09522 Z m 77.15695,0 c 35.96706,-1.24672 63.17972,-26.360354 68.24983,-57.75116 -16.90634,29.189823 -38.49674,46.47718 -68.24983,57.75116 z"
         id="path101"
         sodipodi:nodetypes="ccc"
         inkscape:label="Fifth Wing"
         inkscape:original-d="M 93.71319,119.09522 C 57.746125,117.8485 30.533468,92.734866 25.463362,61.34406 42.3697,90.533883 63.960104,107.82124 93.71319,119.09522 Z" /><path
         style="fill:url(#swatch3);stroke:none;stroke-width:0.264583px;stroke-linecap:butt;stroke-linejoin:miter;stroke-opacity:1;fill-opacity:1"
         d="M 101.23595,117.9434 C 101.09234,103.5146 95.7588,85.779274 80.371997,74.561585 l -2.18549,-1.593323 C 62.645894,61.638438 55.280155,41.172827 57.8799,22.825486 41.888369,32.823908 34.696324,55.767192 35.706904,63.997966 c 1.01058,8.230774 3.979696,14.579645 9.752248,21.271436 5.772552,6.691791 18.792189,12.687997 26.701414,14.905348 l 5.266666,1.47651 c 7.719736,2.16423 12.621893,5.82229 18.600914,10.62824 C 92.929976,102.9374 85.404613,92.5447 75.829495,87.013938 L 70.995724,84.221864 C 61.654367,78.826126 48.862533,64.550608 48.23406,45.226025 41.22316,70.408727 55.372328,88.036693 62.059578,94.441874 40.449126,80.982657 36.193341,56.018841 51.77406,38.288187 c -0.366831,14.304188 5.320869,32.046517 25.36748,44.283741 15.598416,9.521875 21.657245,22.062622 24.09441,35.371472 z m 62.11143,0 c 0.14361,-14.4288 5.47715,-32.164126 20.86395,-43.381815 l 2.18549,-1.593323 c 15.54062,-11.329824 22.90635,-31.795435 20.30661,-50.142776 15.99153,9.998422 23.18358,32.941706 22.173,41.17248 -1.01058,8.230774 -3.9797,14.579645 -9.75225,21.271436 -5.77255,6.691791 -18.79219,12.687997 -26.70142,14.905348 l -5.26666,1.47651 c -7.71974,2.16423 -12.6219,5.82229 -18.60092,10.62824 3.09817,-9.3421 10.62354,-19.7348 20.19865,-25.265562 l 4.83378,-2.792074 c 9.34135,-5.395738 22.13319,-19.671256 22.76166,-38.995839 7.0109,25.182702 -7.13827,42.810668 -13.82552,49.215849 21.61045,-13.459217 25.86624,-38.423033 10.28552,-56.153687 0.36683,14.304188 -5.32087,32.046517 -25.36748,44.283741 -15.59842,9.521875 -21.65725,22.062622 -24.09441,35.371472 z"
         id="path102"
         sodipodi:nodetypes="cssczzsscsscccsc"
         inkscape:label="Sixth Wing"
         inkscape:original-d="M 101.23595,117.9434 C 101.09234,103.5146 95.7588,85.779274 80.371997,74.561585 l -2.18549,-1.593323 C 62.645894,61.638438 55.280155,41.172827 57.8799,22.825486 41.888369,32.823908 34.696324,55.767192 35.706904,63.997966 c 1.01058,8.230774 3.979696,14.579645 9.752248,21.271436 5.772552,6.691791 18.792189,12.687997 26.701414,14.905348 l 5.266666,1.47651 c 7.719736,2.16423 12.621893,5.82229 18.600914,10.62824 C 92.929976,102.9374 85.404613,92.5447 75.829495,87.013938 L 70.995724,84.221864 C 61.654367,78.826126 48.862533,64.550608 48.23406,45.226025 41.22316,70.408727 55.372328,88.036693 62.059578,94.441874 40.449126,80.982657 36.193341,56.018841 51.77406,38.288187 c -0.366831,14.304188 5.320869,32.046517 25.36748,44.283741 15.598416,9.521875 21.657245,22.062622 24.09441,35.371472 z" /></g></g><g
     inkscape:groupmode="layer"
     id="layer17"
     inkscape:label="B"
     style="display:inline;stroke:none"><path
       id="text128"
       style="font-weight:600;font-size:70.5556px;line-height:1.25;font-family:Oxanium;-inkscape-font-specification:'Oxanium Semi-Bold';text-align:center;word-spacing:0px;text-anchor:middle;display:inline;fill:url(#swatch1);stroke:none;stroke-width:0.264583"
       d="m 125.88792,88.71293 c -2.95666,3.326768 -4.89711,7.605019 -5.25291,11.97653 -0.18135,2.61914 0.22272,5.38538 0.4315,8.05067 0.70784,6.04961 3.27602,11.77675 6.66316,16.8584 v -9.51001 h 15.31069 c 2.06964,0 3.10421,1.01133 3.10421,3.03392 v 7.40834 c 0,2.02259 -1.03457,3.03392 -3.10421,3.03392 h -12.39562 c 1.42482,1.82775 2.84306,3.67796 4.7072,5.07359 1.59129,0.87946 3.15897,1.80453 4.70928,2.75797 h 3.1905 c 7.66704,0 11.50059,-3.83354 11.50059,-11.50059 v -6.06784 c 0,-2.49296 -0.7758,-4.37461 -2.32802,-5.64462 l -2.96365,-2.4691 2.46962,-2.96364 c 0.94074,-1.12889 1.41077,-2.493 1.41077,-4.09226 v -4.44469 c 0,-7.667045 -3.83304,-11.50059 -11.50008,-11.50059 z m 1.84175,7.831563 h 13.89941 c 2.06963,0 3.1042,1.01133 3.1042,3.033924 v 5.573823 c 0,2.06962 -1.03457,3.1042 -3.1042,3.1042 h -13.89941 z"
       sodipodi:nodetypes="cccccsssscccssscccsssccsssscc" /></g><g
     inkscape:groupmode="layer"
     id="layer19"
     inkscape:label="Outer Circle"
     style="stroke:none;stroke-opacity:1"><path
       id="path182"
       style="display:inline;fill:url(#swatch1);stroke:none;stroke-width:0.264583px;stroke-linecap:butt;stroke-linejoin:miter;stroke-opacity:1;fill-opacity:1"
       inkscape:label="Outer Circle"
       d="m 132.55625,13.49375 c -26.42892,0.102683 -52.072463,8.995958 -72.890125,25.27856 0.137024,0.844962 0.291615,1.686903 0.468705,2.524394 0.383452,1.837039 0.899383,3.650374 1.476396,5.446695 18.873001,-15.68387 43.083674,-24.75151 67.599494,-25.518855 1.58423,-0.049 3.16925,-0.06305 4.75371,-0.04289 11.09124,0.141137 22.15446,1.968642 32.71325,5.368147 13.2584,4.224376 25.63934,11.056793 36.40191,19.865971 0.53093,-1.689903 1.00882,-3.393948 1.36891,-5.119067 0.22273,-1.053335 0.40189,-2.11489 0.56121,-3.179651 C 184.22601,22.160297 158.75893,13.505311 132.55625,13.49375 Z m 97.78989,51.201008 c -0.27847,2.463414 -0.86783,4.900269 -1.59473,7.260539 -0.30563,0.942494 -0.66582,1.863537 -1.04903,2.775024 0.11154,0.183713 0.23678,0.358765 0.34726,0.54312 1.6665,-2.225317 3.26246,-4.503455 4.79661,-6.82284 -0.80957,-1.267627 -1.64309,-2.519799 -2.50011,-3.755843 z m 6.60012,10.65258 c -1.17361,3.016746 -2.57492,5.941961 -4.16047,8.764323 1.61471,3.340676 3.06147,6.758289 4.33617,10.242785 2.20793,-1.469566 4.40011,-2.961643 6.51485,-4.558895 -1.9053,-4.959963 -4.14048,-9.786824 -6.69055,-14.448213 z m 8.47132,19.394681 c -1.14944,2.350109 -2.41687,4.641458 -3.86592,6.822321 -0.45644,0.70026 -0.96729,1.36362 -1.45314,2.04432 0.63441,2.35739 1.19754,4.7341 1.67277,7.12928 4.28297,21.17646 2.12226,43.57445 -5.99395,63.58682 -7.9501,19.82608 -21.83201,37.18547 -39.32473,49.42695 -16.74467,11.80424 -36.8289,18.75483 -57.27196,19.95589 -5.31229,0.33475 -10.64485,0.26966 -15.94476,-0.17828 2.98708,3.31494 6.6462,6.07852 10.64844,7.99434 65.20014,-0.7273 117.6864,-53.76323 117.73442,-118.96741 -0.0118,-12.85688 -2.106,-25.62698 -6.20117,-37.814231 z M 114.67569,250.20333 c -1.93085,-2.68463 -3.53543,-5.60111 -4.74958,-8.68009 -5.50073,-1.14681 -10.911859,-2.69208 -16.178862,-4.65036 0.09902,1.61538 0.228353,3.22877 0.42013,4.83639 0.209794,1.13495 0.335445,2.28131 0.406176,3.4308 6.540766,2.26898 13.266956,3.96316 20.102136,5.06326 z m -24.156669,-6.57531 c -1.672578,-3.14518 -3.079209,-6.43653 -4.195609,-9.82369 -2.921506,-1.3333 -5.803921,-2.75066 -8.597925,-4.33462 -0.418662,-0.23487 -0.811428,-0.51194 -1.226798,-0.75241 0.633921,3.1585 1.58488,6.25537 2.892846,9.22166 0.176061,0.40359 0.362594,0.8025 0.552938,1.19941 3.450554,1.66583 6.97951,3.16412 10.574548,4.48965 z M 61.236571,227.51583 C 60.540815,224.16984 60.305743,220.74814 60.479512,217.34384 48.889991,207.47157 39.280284,195.2702 32.584574,181.59253 22.379212,160.96895 18.925857,137.12104 22.691638,114.43332 c 0.556417,-3.45708 1.301147,-6.87913 2.192631,-10.2619 -0.629614,-0.86087 -1.270567,-1.71415 -1.8526,-2.60708 -1.270126,-1.911587 -2.41141,-3.902926 -3.448368,-5.947955 -3.965179,11.915105 -6.020432,24.382495 -6.089551,36.939865 0.119073,37.39426 17.799399,72.5601 47.742821,94.95958 z M 21.578011,90.269424 c 2.046836,1.526362 4.166599,2.952798 6.29884,4.360974 1.238167,-3.402612 2.644378,-6.742058 4.208012,-10.008691 -1.547751,-2.701726 -2.913579,-5.505392 -4.082955,-8.390702 -2.442748,4.535572 -4.588557,9.2249 -6.423897,14.038419 z M 32.021301,68.86918 c 1.547044,2.321737 3.153703,4.603089 4.83433,6.829041 0.08616,-0.144914 0.167439,-0.292656 0.254248,-0.437183 -0.475043,-1.081584 -0.912771,-2.179575 -1.277958,-3.305741 -0.63846,-2.0731 -1.180085,-4.204709 -1.497066,-6.361369 -0.789516,1.078686 -1.56081,2.170591 -2.313554,3.275252 z M 50.66099,46.50052 c -0.239412,0.237387 -0.477815,0.47579 -0.715202,0.715202 0.239346,3.012462 0.837677,5.973482 1.686719,8.864058 0.322595,-0.341726 0.655409,-0.673229 0.982369,-1.010791 -0.906772,-2.791115 -1.555418,-5.660921 -1.953886,-8.568469 z m -6.477124,18.370455 c 0.288211,-0.376951 0.571566,-0.757436 0.864547,-1.13068 -0.311675,-2.948277 -0.386687,-5.922101 -0.156063,-8.879045 0.01042,-0.115885 0.0211,-0.231897 0.03152,-0.347782 -0.49609,2.098921 -0.773562,4.126289 -0.858862,6.217191 -0.06609,1.384632 -0.0039,2.765652 0.118856,4.140316 z M 213.07071,55.68859 c 0.85881,-3.024355 1.43242,-6.126424 1.62213,-9.276953 -0.22891,-0.219681 -0.45871,-0.438447 -0.68937,-0.656291 -0.36713,3.024495 -1.00303,6.010574 -1.92029,8.915735 0.33068,0.33783 0.66122,0.675435 0.98753,1.017509 z m 6.53035,7.400065 c 0.29396,0.368042 0.56917,0.749591 0.85835,1.121378 0.0783,-1.156636 0.1144,-2.316721 0.0589,-3.479374 -0.0853,-2.090902 -0.36277,-4.11827 -0.85886,-6.217191 l 0.031,0.347782 h 5.2e-4 c 0.21364,2.739142 0.16232,5.492666 -0.0899,8.227405 z"
       sodipodi:nodetypes="cccccscccccccccccccccccccccccccccccccccccccccccccccccccccccccccccccccccscccccscccccccsccssc" /></g></svg>
